Coordinates
version=1
nRows=32
nColumns=12
inDegrees=yes

Units are S.I. units (second, meters, Newtons, ...)
Angles are in degrees

endheader
time	SC_y	SC_z	SC_x	AC_y	AC_z	AC_x	GH_y	GH_z	GH_yy	EL_x	PS_y
       0.0              -49.84        -0.5669          2.007          30.79            8.3          9.799         -53.14          39.99         -7.337          104.7          57.83
  0.008749              -49.84        -0.5618          2.013          30.79          8.296          9.795         -53.11          39.98         -7.343          104.7          57.84
    0.0175              -49.84        -0.5564          2.019          30.79          8.292          9.791         -53.09          39.98         -7.348          104.7          57.85
   0.02625              -49.83        -0.5507          2.025          30.79          8.288          9.786         -53.06          39.98         -7.354          104.7          57.85
   0.03499              -49.83        -0.5446          2.032           30.8          8.284          9.781         -53.03          39.98         -7.361          104.7          57.86
   0.04374              -49.83        -0.5381           2.04           30.8          8.279          9.775          -53.0          39.97         -7.367          104.6          57.87
   0.05249              -49.83        -0.5312          2.048           30.8          8.274          9.769         -52.97          39.97         -7.375          104.6          57.88
   0.06124              -49.82        -0.5237          2.056           30.8          8.269          9.763         -52.94          39.97         -7.382          104.6          57.88
   0.06999              -49.82        -0.5158          2.066           30.8          8.263          9.757          -52.9          39.97         -7.391          104.6          57.89
   0.07874              -49.82        -0.5073          2.075          30.81          8.257          9.749         -52.86          39.96         -7.399          104.6           57.9
   0.08749              -49.81        -0.4981          2.086          30.81           8.25          9.742         -52.82          39.96         -7.409          104.5          57.91
   0.09624              -49.81        -0.4883          2.097          30.81          8.243          9.733         -52.77          39.95         -7.419          104.5          57.93
     0.105               -49.8        -0.4777           2.11          30.82          8.235          9.725         -52.72          39.95          -7.43          104.5          57.94
    0.1137               -49.8        -0.4662          2.123          30.82          8.227          9.715         -52.67          39.94         -7.442          104.5          57.95
    0.1225              -49.79        -0.4538          2.137          30.83          8.218          9.704         -52.61          39.94         -7.455          104.5          57.97
    0.1312              -49.79        -0.4403          2.153          30.83          8.208          9.693         -52.55          39.93         -7.469          104.4          57.98
      0.14              -49.78        -0.4257           2.17          30.83          8.198          9.681         -52.48          39.93         -7.484          104.4           58.0
    0.1487              -49.77        -0.4097          2.188          30.84          8.186          9.668         -52.41          39.92         -7.501          104.4          58.02
    0.1575              -49.76        -0.3923          2.208          30.85          8.174          9.653         -52.33          39.91         -7.519          104.3          58.04
    0.1662              -49.76        -0.3733           2.23          30.85           8.16          9.637         -52.24          39.91         -7.539          104.3          58.06
     0.175              -49.75        -0.3524          2.254          30.86          8.145          9.619         -52.14           39.9         -7.561          104.2          58.08
    0.1837              -49.74        -0.3293          2.281          30.87          8.128            9.6         -52.04          39.89         -7.585          104.2          58.11
    0.1925              -49.72        -0.3039           2.31          30.87           8.11          9.579         -51.92          39.88         -7.611          104.1          58.14
    0.2012              -49.71        -0.2757          2.342          30.88          8.089          9.555         -51.79          39.87         -7.641          104.1          58.17
      0.21               -49.7        -0.2444          2.378          30.89          8.067          9.529         -51.64          39.85         -7.673          104.0          58.21
    0.2187              -49.68        -0.2095          2.419          30.91          8.041          9.499         -51.48          39.84          -7.71          103.9          58.25
    0.2275              -49.67        -0.1703          2.464          30.92          8.013          9.466          -51.3          39.82         -7.751          103.8          58.29
    0.2362              -49.65        -0.1262          2.515          30.93          7.981          9.429         -51.09           39.8         -7.796          103.7          58.35
     0.245              -49.62       -0.07647          2.572          30.95          7.945          9.388         -50.86          39.78         -7.848          103.6           58.4
    0.2537               -49.6       -0.01996          2.637          30.97          7.904           9.34          -50.6          39.76         -7.907          103.5          58.47
    0.2625              -49.57        0.04454          2.712          30.99          7.858          9.286          -50.3          39.73         -7.974          103.3          58.54
    0.2712              -49.54         0.1186          2.797          31.01          7.804          9.224         -49.96           39.7         -8.052          103.2          58.63
